<?xml version="1.0" encoding="UTF-8"?>
<svg xmlns="http://www.w3.org/2000/svg" xmlns:xlink="http://www.w3.org/1999/xlink" width="20px" height="20px" viewBox="0 0 20 20" version="1.1">
<g id="surface1">
<path style=" stroke:none;fill-rule:evenodd;fill:#f00;fill-opacity:1;" d="M 10 0 C 4.476562 0 0 4.476562 0 10 C 0 15.523438 4.476562 20 10 20 C 15.523438 20 20 15.523438 20 10 C 20 4.476562 15.523438 0 10 0 Z M 11.042969 10.4375 L 11.042969 15.878906 L 8.792969 15.878906 L 8.792969 10.441406 L 7.667969 10.441406 L 7.667969 8.566406 L 8.792969 8.566406 L 8.792969 7.4375 C 8.792969 5.910156 9.425781 5 11.230469 5 L 12.734375 5 L 12.734375 6.875 L 11.792969 6.875 C 11.089844 6.875 11.042969 7.136719 11.042969 7.625 L 11.042969 8.5625 L 12.742188 8.5625 L 12.542969 10.4375 Z M 11.042969 10.4375 "/>
</g>
</svg>
