<?xml version="1.0" encoding="UTF-8"?>
<svg xmlns="http://www.w3.org/2000/svg" xmlns:xlink="http://www.w3.org/1999/xlink" width="20px" height="20px" viewBox="0 0 20 20" version="1.1">
<g id="surface1">
<path style=" stroke:none;fill-rule:nonzero;fill:#AAAAAA;fill-opacity:1;" d="M 18.484375 8.652344 L 18.394531 8.277344 L 10.253906 8.277344 L 10.253906 11.722656 L 15.117188 11.722656 C 14.613281 14.121094 12.269531 15.382812 10.355469 15.382812 C 8.960938 15.382812 7.492188 14.796875 6.519531 13.855469 C 5.484375 12.835938 4.898438 11.445312 4.886719 9.992188 C 4.886719 8.542969 5.539062 7.089844 6.488281 6.136719 C 7.4375 5.179688 8.871094 4.644531 10.296875 4.644531 C 11.929688 4.644531 13.101562 5.511719 13.539062 5.90625 L 15.984375 3.472656 C 15.269531 2.839844 13.292969 1.25 10.21875 1.25 C 7.847656 1.25 5.570312 2.160156 3.90625 3.816406 C 2.265625 5.449219 1.414062 7.808594 1.414062 10 C 1.414062 12.191406 2.21875 14.433594 3.8125 16.078125 C 5.511719 17.832031 7.917969 18.75 10.394531 18.75 C 12.652344 18.75 14.789062 17.867188 16.3125 16.261719 C 17.808594 14.683594 18.585938 12.5 18.585938 10.210938 C 18.585938 9.25 18.488281 8.675781 18.484375 8.652344 Z M 18.484375 8.652344 "/>
</g>
</svg>
