<?xml version="1.0" encoding="UTF-8"?>
<svg xmlns="http://www.w3.org/2000/svg" xmlns:xlink="http://www.w3.org/1999/xlink" width="20px" height="20px" viewBox="0 0 20 20" version="1.1">
<g id="surface1">
<path style=" stroke:none;fill-rule:nonzero;fill:#AAAAAA;fill-opacity:1;" d="M 4.882812 2.460938 C 4.882812 3.820312 3.789062 4.921875 2.441406 4.921875 C 1.09375 4.921875 0 3.820312 0 2.460938 C 0 1.101562 1.09375 0 2.441406 0 C 3.789062 0 4.882812 1.101562 4.882812 2.460938 Z M 4.527344 6.664062 L 0.398438 6.664062 L 0.398438 20 L 4.527344 20 Z M 11.125 6.664062 L 7.167969 6.664062 L 7.167969 20 L 11.125 20 C 11.125 20 11.125 15.054688 11.125 13 C 11.125 11.125 11.992188 10.007812 13.640625 10.007812 C 15.160156 10.007812 15.890625 11.082031 15.890625 13 C 15.890625 14.921875 15.890625 20 15.890625 20 L 20 20 C 20 20 20 15.128906 20 11.558594 C 20 7.984375 17.976562 6.257812 15.144531 6.257812 C 12.316406 6.257812 11.125 8.460938 11.125 8.460938 Z M 11.125 6.664062 "/>
</g>
</svg>
