<?xml version="1.0" encoding="UTF-8"?>
<svg xmlns="http://www.w3.org/2000/svg" xmlns:xlink="http://www.w3.org/1999/xlink" width="20px" height="20px" viewBox="0 0 20 20" version="1.1">
<g id="surface1">
<path style=" stroke:none;fill-rule:evenodd;fill:#AAA;fill-opacity:1;" d="M 20 3.796875 C 19.265625 4.125 18.472656 4.34375 17.644531 4.441406 C 18.492188 3.933594 19.140625 3.128906 19.449219 2.171875 C 18.660156 2.640625 17.777344 2.984375 16.84375 3.167969 C 16.09375 2.371094 15.03125 1.875 13.851562 1.875 C 11.585938 1.875 9.75 3.710938 9.75 5.976562 C 9.75 6.296875 9.785156 6.609375 9.855469 6.910156 C 6.445312 6.738281 3.421875 5.105469 1.398438 2.621094 C 1.035156 3.25 0.84375 3.960938 0.84375 4.683594 C 0.84375 6.105469 1.566406 7.363281 2.667969 8.097656 C 1.996094 8.078125 1.363281 7.890625 0.808594 7.585938 L 0.808594 7.636719 C 0.808594 9.625 2.222656 11.285156 4.097656 11.660156 C 3.753906 11.753906 3.390625 11.804688 3.019531 11.804688 C 2.753906 11.804688 2.496094 11.777344 2.242188 11.730469 C 2.769531 13.359375 4.28125 14.546875 6.074219 14.582031 C 4.667969 15.683594 2.902344 16.339844 0.980469 16.339844 C 0.648438 16.339844 0.324219 16.320312 0 16.28125 C 1.820312 17.449219 3.976562 18.125 6.289062 18.125 C 13.835938 18.125 17.964844 11.871094 17.964844 6.449219 C 17.964844 6.269531 17.960938 6.09375 17.953125 5.917969 C 18.753906 5.347656 19.449219 4.621094 20 3.800781 Z M 20 3.796875 "/>
</g>
</svg>
